inDegrees=no
num_controls=7
num_derivatives=13
num_iterations=103
num_multipliers=7
num_parameters=0
num_slacks=7
num_states=26
objective=0.430642
objective_accelerations=0.050538
objective_balance=0.006888
objective_effort=0.030920
objective_height=0.341143
objective_ligament=0.001152
solver_duration=1343.881785
status=Solve_Succeeded
success=true
DataType=double
version=3
OpenSimVersion=4.5
endheader
time	/jointset/ground_pelvis/pelvis_tilt/value	/jointset/ground_pelvis/pelvis_tx/value	/jointset/ground_pelvis/pelvis_ty/value	/jointset/hip_l/hip_flexion_l/value	/jointset/hip_l/hip_adduction_l/value	/jointset/hip_l/hip_rotation_l/value	/jointset/back/lumbar_extension/value	/jointset/patellofemoral_l/patellar_flexion_l/value	/jointset/knee_l/knee_flexion_l/value	/jointset/knee_l/knee_adduction_l/value	/jointset/knee_l/knee_rotation_l/value	/jointset/ankle_l/ankle_angle_l/value	/jointset/subtalar_l/subtalar_angle_l/value	/jointset/ground_pelvis/pelvis_tilt/speed	/jointset/ground_pelvis/pelvis_tx/speed	/jointset/ground_pelvis/pelvis_ty/speed	/jointset/hip_l/hip_flexion_l/speed	/jointset/hip_l/hip_adduction_l/speed	/jointset/hip_l/hip_rotation_l/speed	/jointset/back/lumbar_extension/speed	/jointset/patellofemoral_l/patellar_flexion_l/speed	/jointset/knee_l/knee_flexion_l/speed	/jointset/knee_l/knee_adduction_l/speed	/jointset/knee_l/knee_rotation_l/speed	/jointset/ankle_l/ankle_angle_l/speed	/jointset/subtalar_l/subtalar_angle_l/speed	/forceset/tau_hip_flexion_l	/forceset/tau_hip_adduction_l	/forceset/tau_hip_rotation_l	/forceset/tau_knee_flexion_l	/forceset/tau_ankle_angle_l	/forceset/tau_subtalar_angle_l	/forceset/tau_lumbar_extension	lambda_cid13_p0	lambda_cid13_p1	lambda_cid13_p2	lambda_cid13_p3	lambda_cid13_p4	lambda_cid13_p5	lambda_cid14_p0	/jointset/ground_pelvis/pelvis_tilt/accel	/jointset/ground_pelvis/pelvis_tx/accel	/jointset/ground_pelvis/pelvis_ty/accel	/jointset/hip_l/hip_flexion_l/accel	/jointset/hip_l/hip_adduction_l/accel	/jointset/hip_l/hip_rotation_l/accel	/jointset/back/lumbar_extension/accel	/jointset/patellofemoral_l/patellar_flexion_l/accel	/jointset/knee_l/knee_flexion_l/accel	/jointset/knee_l/knee_adduction_l/accel	/jointset/knee_l/knee_rotation_l/accel	/jointset/ankle_l/ankle_angle_l/accel	/jointset/subtalar_l/subtalar_angle_l/accel	gamma_cid13_p0	gamma_cid13_p1	gamma_cid13_p2	gamma_cid13_p3	gamma_cid13_p4	gamma_cid13_p5	gamma_cid14_p0
1	-0.4422104456104261	-0.05354234243941006	0.5887535421131176	1.782208901116772	-0.2711544246066023	0.2287405666408761	-0.4363284667956651	1.437754889140622	1.437754889140565	-0.174459547189199	0.1745312514183553	0.3156960939243852	0.05205258027921209	-0.008965863336662574	0.002644437037804863	-0.003385586161036284	0.01379761268243187	0.00110053972990162	0.004206255234739428	-6.022939546926029e-05	0.0112515904274065	0.0112515904274105	3.924876364585003e-05	1.027105322151349e-07	0.007229547242884803	0.003471084841994273	-0.3302458858039849	0.007696895927113357	-0.01186154582804507	-0.3736001766523178	0.04816498859408337	0.01435794418018392	0.2955571032320979	-30.8919974275822	0.7803850191040576	-2.362500213265943	18.85255881751199	-729.7556336718734	-53.98105828714333	-0.03912631913002204	1.038303115911114	-0.05985588577736535	1.81739886725045	-5.66940908845366	-0.6118875908805511	-2.099278708508662	-0.005496186691356125	-5.596500002745296	-5.596500002745225	-0.06878923289225819	0.01683244123607138	-1.269932564178006	-1.132712413887819	-4.483465715208109e-10	5.887644447372588e-09	-1.498377586867178e-08	1.347786796642442e-09	1.514052402985223e-09	-7.873951099188461e-10	2.51378676243221e-09
1.01	-0.4422485851210284	-0.05351886552576199	0.588810449604364	1.782063995154146	-0.2711731827933833	0.228675618348736	-0.4363289359683751	1.437587990025599	1.437587990025585	-0.1744593641276498	0.174531220579229	0.3157052547293175	0.05203192301681527	0.001334702724526595	0.002055246041100693	0.01476377324356945	-0.04277145421324751	-0.00484971902548246	-0.01719100014360937	-3.618102987410236e-05	-0.04462334184670082	-0.0446233418466773	-3.426341731077793e-06	-5.079561893877697e-06	-0.005393389134877531	-0.007597172657184678	-0.3299833060632436	0.007690472655013112	-0.0118883162419439	-0.3736825084350817	0.0485775580257516	0.01433458024282868	0.2953804674298413	-30.7443049065372	0.7651784420500853	-2.360654102605623	18.64699916428852	-729.5789837536983	-53.99199728001749	-0.03913473977815731	1.025444910275948	-0.05780425022910203	1.813206106956246	-5.649552735732753	-0.5862322915618939	-2.159217681597447	0.005968965661183273	-5.581777540977523	-5.581777540974638	0.02787164637011275	-0.009025309443698738	-1.257873557125963	-1.093083401543778	-1.748358623377688e-09	3.027984724775374e-09	4.285269998759436e-08	6.963416772246451e-09	-8.37554741043353e-09	4.334289888960416e-08	-7.701529497672607e-09
1.02	-0.4421838166592081	-0.05350115123080339	0.5890487510156345	1.781353619073442	-0.2712513710224568	0.2283968437569922	-0.436329241933933	1.436862584047587	1.436862584047618	-0.1744596321580084	0.1745311715677863	0.3155883062939619	0.05190074298270449	0.01161573114784001	0.00149191329991205	0.03289319784379566	-0.09929641093323482	-0.0107854687286489	-0.03855900468593694	-2.758796523051355e-05	-0.1004497821701717	-0.100449782170129	-5.09696178869634e-05	-3.531752789943679e-06	-0.01799230081466456	-0.01863346950079766	-0.3297207263225034	0.007684049382912578	-0.01191508665584176	-0.3737648402178457	0.04899012745741981	0.01431121630547308	0.2952038316275837	-30.60492328687689	0.7525112399170828	-2.360451540706802	18.49596091545002	-729.5063101718473	-53.94986558197294	-0.0391370479118135	1.034395588335984	-0.05468423467427187	1.813411906374542	-5.660587053315246	-0.6089857804370216	-2.093428541304414	-0.008587246881672742	-5.586801612618005	-5.586801612617997	-0.06976286704804777	0.01817845754207461	-1.265127624582967	-1.126320282774629	-3.428057582280897e-09	-1.629536086267699e-09	9.935830509487774e-08	1.320742547828562e-08	-1.915011574175915e-08	8.208519975016479e-08	-1.740834701678986e-08
1.03	-0.4420162750584073	-0.05348895117152958	0.5894681693821436	1.780078362609552	-0.2713887752672085	0.2279046315621906	-0.4363295269377601	1.435579246218147	1.435579246218058	-0.1744604073259739	0.1745311603044714	0.3153453590074651	0.05165944750882032	0.02189521350822899	0.0009513300624062116	0.05097945612736191	-0.155732687841277	-0.01668563496684158	-0.05987091827467414	-3.063857446256623e-05	-0.1562008239533937	-0.1562008239534007	-0.0001031331699661708	1.053032347841691e-06	-0.03060601253192278	-0.02961093901914973	-0.3293623113854145	0.007746333342030372	-0.01199786926460004	-0.3734305843811678	0.04914610364939922	0.01440546717808252	0.2949507874031971	-30.52177313400669	0.682716081866793	-2.33298665204868	18.39757772530723	-729.093854495864	-53.95203364295076	-0.03916803015422566	1.025119310685667	-0.05325671273956573	1.804573837637965	-5.631818603701973	-0.579093296611109	-2.148215958735375	0.00365216590520436	-5.566706015703101	-5.566706015710597	0.02718482149885056	-0.008471713111975131	-1.260817806115636	-1.081275265015228	-5.111630897378457e-09	-6.305402418621454e-09	1.55850329888396e-07	1.945784621218639e-08	-2.993371436408381e-08	1.207725210888993e-07	-2.710997577324396e-08
